# xmcd CD database file
#
# Track frame offsets:
#	150
#	12034
#	24548
#	36222
#	48618
#	61188
#	74542
#	87761
#	100422
#	108467
#	122640
#	137777
#
# Disc length: 2027 seconds
#
# Revision: 0
# Processed by: cddbd v1.4PL0 Copyright (c) Steve Scherf et al.
# Submitted via: CDex 1.50Beta7
#
DISCID=a107e90c
DTITLE=Various Artist - Ladies Of Jazz  
DYEAR=1900
DGENRE=Jazz
TTITLE0=Tisket a Tisket 
TTITLE1=Strictly from Dixie 
TTITLE2=I Found My Yellow Basket 
TTITLE3=Very Thought of You 
TTITLE4=I Can't Get Started 
TTITLE5=Body and Soul 
TTITLE6=I Let a Song Go Out of My Heart 
TTITLE7=My Melancholy Baby 
TTITLE8=Amor 
TTITLE9=Drum Boogie 
TTITLE10=Where or When 
TTITLE11=On the Sunny Side of the Street 
EXTD=
EXTT0=
EXTT1=
EXTT2=
EXTT3=
EXTT4=
EXTT5=
EXTT6=
EXTT7=
EXTT8=
EXTT9=
EXTT10=
EXTT11=
PLAYORDER=
